<svg width="604" height="108" viewBox="0 0 604 108" fill="none" xmlns="http://www.w3.org/2000/svg">
<rect width="604" height="108" fill="#F7F7F7"/>
<path d="M147.432 71.368C145.745 71.368 144.043 71.3067 142.326 71.184C140.609 71.092 139.106 70.8773 137.818 70.54V39.582C138.493 39.4593 139.213 39.352 139.98 39.26C140.747 39.1373 141.529 39.0453 142.326 38.984C143.123 38.9227 143.905 38.8767 144.672 38.846C145.469 38.8153 146.221 38.8 146.926 38.8C148.858 38.8 150.652 38.9533 152.308 39.26C153.964 39.536 155.39 40.0113 156.586 40.686C157.813 41.3607 158.763 42.25 159.438 43.354C160.113 44.458 160.45 45.8227 160.45 47.448C160.45 48.9507 160.082 50.2387 159.346 51.312C158.641 52.3853 157.644 53.244 156.356 53.888C158.288 54.532 159.714 55.4827 160.634 56.74C161.554 57.9973 162.014 59.592 162.014 61.524C162.014 64.8053 160.818 67.274 158.426 68.93C156.034 70.5553 152.369 71.368 147.432 71.368ZM143.522 56.648V66.354C144.166 66.4153 144.856 66.4613 145.592 66.492C146.328 66.5227 147.003 66.538 147.616 66.538C148.812 66.538 149.916 66.4613 150.928 66.308C151.971 66.1547 152.86 65.894 153.596 65.526C154.363 65.1273 154.961 64.606 155.39 63.962C155.85 63.318 156.08 62.49 156.08 61.478C156.08 59.6687 155.421 58.4113 154.102 57.706C152.783 57.0007 150.959 56.648 148.628 56.648H143.522ZM143.522 52.094H147.616C149.824 52.094 151.557 51.7873 152.814 51.174C154.071 50.53 154.7 49.3953 154.7 47.77C154.7 46.2367 154.041 45.148 152.722 44.504C151.434 43.86 149.747 43.538 147.662 43.538C146.773 43.538 145.975 43.5533 145.27 43.584C144.595 43.6147 144.013 43.6607 143.522 43.722V52.094ZM172.788 55.038C172.788 56.786 173.003 58.3807 173.432 59.822C173.862 61.2327 174.475 62.444 175.272 63.456C176.1 64.4373 177.097 65.204 178.262 65.756C179.428 66.308 180.746 66.584 182.218 66.584C183.66 66.584 184.963 66.308 186.128 65.756C187.294 65.204 188.275 64.4373 189.072 63.456C189.9 62.444 190.529 61.2327 190.958 59.822C191.388 58.3807 191.602 56.786 191.602 55.038C191.602 53.29 191.388 51.7107 190.958 50.3C190.529 48.8587 189.9 47.6473 189.072 46.666C188.275 45.654 187.294 44.872 186.128 44.32C184.963 43.768 183.66 43.492 182.218 43.492C180.746 43.492 179.428 43.768 178.262 44.32C177.097 44.872 176.1 45.654 175.272 46.666C174.475 47.678 173.862 48.8893 173.432 50.3C173.003 51.7107 172.788 53.29 172.788 55.038ZM197.674 55.038C197.674 57.7673 197.26 60.1747 196.432 62.26C195.635 64.3453 194.531 66.0933 193.12 67.504C191.74 68.884 190.115 69.9267 188.244 70.632C186.374 71.3373 184.38 71.69 182.264 71.69C180.148 71.69 178.14 71.3373 176.238 70.632C174.368 69.9267 172.727 68.884 171.316 67.504C169.936 66.0933 168.832 64.3453 168.004 62.26C167.176 60.1747 166.762 57.7673 166.762 55.038C166.762 52.3087 167.176 49.9167 168.004 47.862C168.832 45.7767 169.952 44.0287 171.362 42.618C172.804 41.2073 174.46 40.1493 176.33 39.444C178.201 38.7387 180.179 38.386 182.264 38.386C184.35 38.386 186.328 38.7387 188.198 39.444C190.069 40.1493 191.694 41.2073 193.074 42.618C194.485 44.0287 195.604 45.7767 196.432 47.862C197.26 49.9167 197.674 52.3087 197.674 55.038ZM225.128 39.122V44.136H215.33V71H209.488V44.136H199.69V39.122H225.128ZM252.755 39.122V44.136H242.957V71H237.115V44.136H227.317V39.122H252.755ZM277.323 65.986V71H257.175V39.122H262.971V65.986H277.323ZM281.748 71V39.122H302.218V44.044H287.544V51.91H300.608V56.74H287.544V66.078H303.322V71H281.748ZM340.919 71C339.876 69.252 338.711 67.3813 337.423 65.388C336.135 63.364 334.801 61.34 333.421 59.316C332.041 57.2613 330.63 55.2833 329.189 53.382C327.778 51.45 326.429 49.7173 325.141 48.184V71H319.437V39.122H324.175C325.402 40.41 326.72 41.9433 328.131 43.722C329.542 45.47 330.952 47.2947 332.363 49.196C333.804 51.0973 335.184 53.014 336.503 54.946C337.852 56.8473 339.048 58.626 340.091 60.282V39.122H345.841V71H340.919ZM358.226 55.038C358.226 56.786 358.441 58.3807 358.87 59.822C359.299 61.2327 359.913 62.444 360.71 63.456C361.538 64.4373 362.535 65.204 363.7 65.756C364.865 66.308 366.184 66.584 367.656 66.584C369.097 66.584 370.401 66.308 371.566 65.756C372.731 65.204 373.713 64.4373 374.51 63.456C375.338 62.444 375.967 61.2327 376.396 59.822C376.825 58.3807 377.04 56.786 377.04 55.038C377.04 53.29 376.825 51.7107 376.396 50.3C375.967 48.8587 375.338 47.6473 374.51 46.666C373.713 45.654 372.731 44.872 371.566 44.32C370.401 43.768 369.097 43.492 367.656 43.492C366.184 43.492 364.865 43.768 363.7 44.32C362.535 44.872 361.538 45.654 360.71 46.666C359.913 47.678 359.299 48.8893 358.87 50.3C358.441 51.7107 358.226 53.29 358.226 55.038ZM383.112 55.038C383.112 57.7673 382.698 60.1747 381.87 62.26C381.073 64.3453 379.969 66.0933 378.558 67.504C377.178 68.884 375.553 69.9267 373.682 70.632C371.811 71.3373 369.818 71.69 367.702 71.69C365.586 71.69 363.577 71.3373 361.676 70.632C359.805 69.9267 358.165 68.884 356.754 67.504C355.374 66.0933 354.27 64.3453 353.442 62.26C352.614 60.1747 352.2 57.7673 352.2 55.038C352.2 52.3087 352.614 49.9167 353.442 47.862C354.27 45.7767 355.389 44.0287 356.8 42.618C358.241 41.2073 359.897 40.1493 361.768 39.444C363.639 38.7387 365.617 38.386 367.702 38.386C369.787 38.386 371.765 38.7387 373.636 39.444C375.507 40.1493 377.132 41.2073 378.512 42.618C379.923 44.0287 381.042 45.7767 381.87 47.862C382.698 49.9167 383.112 52.3087 383.112 55.038ZM410.565 39.122V44.136H400.767V71H394.925V44.136H385.127V39.122H410.565ZM414.986 71V39.122H435.456V44.044H420.782V51.91H433.846V56.74H420.782V66.078H436.56V71H414.986ZM449.667 66.676C451.752 66.676 453.27 66.3233 454.221 65.618C455.172 64.9127 455.647 63.916 455.647 62.628C455.647 61.8613 455.478 61.202 455.141 60.65C454.834 60.098 454.374 59.6073 453.761 59.178C453.178 58.718 452.458 58.304 451.599 57.936C450.74 57.5373 449.759 57.154 448.655 56.786C447.551 56.3873 446.478 55.958 445.435 55.498C444.423 55.0073 443.518 54.4093 442.721 53.704C441.954 52.9987 441.326 52.1553 440.835 51.174C440.375 50.1927 440.145 49.012 440.145 47.632C440.145 44.7493 441.142 42.4953 443.135 40.87C445.128 39.214 447.842 38.386 451.277 38.386C453.27 38.386 455.034 38.616 456.567 39.076C458.131 39.5053 459.358 39.9807 460.247 40.502L458.453 45.194C457.41 44.6113 456.26 44.1667 455.003 43.86C453.776 43.5533 452.504 43.4 451.185 43.4C449.621 43.4 448.394 43.722 447.505 44.366C446.646 45.01 446.217 45.9147 446.217 47.08C446.217 47.7853 446.355 48.3987 446.631 48.92C446.938 49.4107 447.352 49.8553 447.873 50.254C448.425 50.6527 449.054 51.0207 449.759 51.358C450.495 51.6953 451.292 52.0173 452.151 52.324C453.654 52.876 454.988 53.4433 456.153 54.026C457.349 54.578 458.346 55.2527 459.143 56.05C459.971 56.8167 460.6 57.7367 461.029 58.81C461.458 59.8527 461.673 61.1253 461.673 62.628C461.673 65.5107 460.646 67.7493 458.591 69.344C456.567 70.908 453.592 71.69 449.667 71.69C448.348 71.69 447.137 71.598 446.033 71.414C444.96 71.2607 443.994 71.0613 443.135 70.816C442.307 70.5707 441.586 70.3253 440.973 70.08C440.36 69.804 439.869 69.5587 439.501 69.344L441.203 64.606C442.031 65.066 443.15 65.526 444.561 65.986C445.972 66.446 447.674 66.676 449.667 66.676Z" fill="black"/>
</svg>
